<svg id="Layer_1" data-name="Layer 1" xmlns="http://www.w3.org/2000/svg" viewBox="0 0 426.29 153.1"><defs><style>.cls-1,.cls-2{fill:#231f20;}.cls-1{stroke:#231f20;stroke-miterlimit:10;}</style></defs><title>arrowRight</title><rect class="cls-1" x="0.5" y="56.86" width="314" height="35" rx="7.59"/><polygon class="cls-2" points="295.49 150.59 295.55 76.54 295.61 2.49 359.71 39.57 423.81 76.64 359.65 113.61 295.49 150.59"/><path class="cls-2" d="M351.49,409.73l0-25.11,0-39.92V329.94l0-38.12,0-19.22c0-3.49.13-7,0-10.49v-.48l-3.76,2.16,21.74,12.57,34.55,20,12.78,7.39,33,19.08,16.64,9.63c3,1.74,6,3.62,9.08,5.25l.42.24v-4.32l-21.76,12.54-34.58,19.93-12.8,7.37-33,19c-8.57,4.94-17.25,9.76-25.74,14.84l-.42.24c-2.79,1.6-.27,5.92,2.52,4.31L372,399.35l34.59-19.93,12.79-7.37,33-19c8.58-4.95,17.25-9.76,25.75-14.84l.41-.24a2.52,2.52,0,0,0,0-4.32l-21.73-12.57-34.56-20-12.78-7.39-33-19.08c-8.57-5-17.08-10-25.72-14.88l-.41-.24a2.53,2.53,0,0,0-3.77,2.16l0,25.11,0,39.92v14.76l0,38.11c0,9.9-.17,19.82,0,29.72,0,.16,0,.32,0,.48C346.49,412.94,351.49,413,351.49,409.73Z" transform="translate(-53.5 -259.14)"/></svg>