<svg id="Layer_1" data-name="Layer 1" xmlns="http://www.w3.org/2000/svg" viewBox="0 0 83.38 83.01"><defs><style>.cls-1,.cls-2{fill:#231f20;}.cls-2{stroke:#231f20;stroke-miterlimit:10;}</style></defs><title>heart</title><polygon class="cls-1" points="5.07 35.95 41.54 35.95 78.01 35.95 59.78 58.23 41.54 80.51 23.31 58.23 5.07 35.95"/><path class="cls-1" d="M63.53,117.45h72.94l-1.77-4.26-16,19.52-13,15.91-7.47,9.12h3.54l-16-19.52-13-15.91-7.46-9.12a2.52,2.52,0,0,0-3.54,0,2.55,2.55,0,0,0,0,3.53l16,19.53,13,15.91,7.46,9.12a2.51,2.51,0,0,0,3.54,0l16-19.53,13-15.91,7.47-9.12c1.31-1.61.55-4.27-1.77-4.27H63.53C60.31,112.45,60.31,117.45,63.53,117.45Z" transform="translate(-58.46 -79)"/><ellipse class="cls-2" cx="60.41" cy="25.13" rx="22.47" ry="24.63"/><ellipse class="cls-2" cx="22.97" cy="25.13" rx="22.47" ry="24.63"/></svg>