<svg id="Layer_1" data-name="Layer 1" xmlns="http://www.w3.org/2000/svg" viewBox="0 0 205.93 173.67"><defs><style>.cls-1{fill:#9197ae;}.cls-2{fill:#fff;}</style></defs><title>shopBasket</title><path class="cls-1" d="M199.52,119.76H114.35v-3.54a30.08,30.08,0,0,1,30.08-30.08h25.14a30,30,0,0,1,30,30Z" transform="translate(-53.99 -83.64)"/><path class="cls-2" d="M199.52,117.26H114.35l2.5,2.5c0-3.87,0-7.61,1.12-11.36a27.65,27.65,0,0,1,19.95-19,34.46,34.46,0,0,1,8.35-.77h19.87a56.69,56.69,0,0,1,6.9.2,27.33,27.33,0,0,1,13.38,5.55A27.65,27.65,0,0,1,195.5,107c1.43,4.19,1.52,8.36,1.52,12.73,0,3.21,5,3.22,5,0,0-4.22-.05-8.36-1.2-12.46a32.56,32.56,0,0,0-22.14-22.37,37.18,37.18,0,0,0-10.5-1.29h-20.5a55.12,55.12,0,0,0-8.42.42,32.2,32.2,0,0,0-14.79,6.43,32.88,32.88,0,0,0-10.69,14.67c-1.74,4.74-1.93,9.61-1.93,14.6a2.54,2.54,0,0,0,2.5,2.5h85.17C202.74,122.26,202.74,117.26,199.52,117.26Z" transform="translate(-53.99 -83.64)"/><path class="cls-1" d="M222.08,249.79H91.54a30,30,0,0,1-30-30v-100H252.37V219.5A30.29,30.29,0,0,1,222.08,249.79Z" transform="translate(-53.99 -83.64)"/><path class="cls-2" d="M222.08,242.29H106c-4.82,0-9.65,0-14.47,0a32.52,32.52,0,0,1-4.19-.28l2,.27a31,31,0,0,1-7.45-2.05l1.79.76a30.4,30.4,0,0,1-4.94-2.64c-.41-.27-.81-.56-1.21-.85-1.21-.86,1.35,1.13.22.17-.75-.64-1.48-1.28-2.18-2s-1.28-1.34-1.87-2.05c-.06-.07-.43-.43-.42-.51s1.17,1.57.58.74c-.29-.4-.58-.8-.85-1.21a30.62,30.62,0,0,1-2.74-5.07l.76,1.79a31.13,31.13,0,0,1-2-7.46l.26,2c-.55-4.15-.28-8.48-.28-12.65V132.49c0-4.17.13-8.37,0-12.55v-.18l-7.5,7.5H244.63c2.47,0,5,0,7.42,0,.11,0,.21,0,.32,0l-7.5-7.5v89c0,3.58,0,7.15,0,10.72a32.49,32.49,0,0,1-.28,4.18l.27-2a31.29,31.29,0,0,1-2,7.48l.76-1.8a30.8,30.8,0,0,1-2.72,5.1c-.27.41-.56.81-.85,1.21-.58.83.58-.72.58-.74s-.34.42-.41.52c-.63.75-1.29,1.48-2,2.18s-1.35,1.28-2.06,1.88l-.51.41c-.59.51,1.67-1.22.61-.48-.36.26-.71.52-1.08.76a30.61,30.61,0,0,1-5.23,2.81l1.79-.75a31.66,31.66,0,0,1-7.47,2l2-.27a32.33,32.33,0,0,1-4.17.28c-3.92,0-7.68,3.44-7.5,7.5a7.61,7.61,0,0,0,7.5,7.5,37.77,37.77,0,0,0,37.78-37.08c.12-5.07,0-10.16,0-15.23V138.09c0-6,.1-12,0-18.07v-.26a7.6,7.6,0,0,0-7.5-7.5H69.24c-2.47,0-4.95,0-7.42,0H61.5a7.6,7.6,0,0,0-7.5,7.5v84.09c0,5.3,0,10.6,0,15.9a37.54,37.54,0,0,0,37.54,37.54c4.17,0,8.34,0,12.51,0h118c3.92,0,7.68-3.44,7.5-7.5A7.63,7.63,0,0,0,222.08,242.29Z" transform="translate(-53.99 -83.64)"/></svg>