<svg id="Basket" xmlns="http://www.w3.org/2000/svg" viewBox="0 0 118.16 82.6"><defs><style>.cls-1,.cls-4{fill:#231f20;}.cls-2{fill:none;}.cls-2,.cls-4{stroke:#231f20;stroke-miterlimit:10;}.cls-3{fill:#fff;}</style></defs><title>shopBasket</title><polygon class="cls-1" points="100.46 82.6 17.72 82.6 17.72 34.47 100.46 34.47 100.46 58.53 100.46 82.6"/><polyline class="cls-1" points="118.16 34.47 100.46 82.6 100.46 34.47"/><polyline class="cls-1" points="0 34.47 17.7 82.6 17.7 34.47"/><rect class="cls-2" x="13.3" y="5.79" width="91.58" height="27.13" rx="4"/><rect class="cls-3" x="12.23" y="26.85" width="93.44" height="10.29" rx="3.27"/><rect class="cls-4" x="34.51" y="0.5" width="48.46" height="10.26" rx="5.13"/><rect class="cls-3" x="56.51" y="46.61" width="1.62" height="27.92" rx="0.81"/><rect class="cls-3" x="40.9" y="46.61" width="1.62" height="27.92" rx="0.81"/><rect class="cls-3" x="26.11" y="46.61" width="1.62" height="27.92" rx="0.81"/><rect class="cls-3" x="72.13" y="46.61" width="1.62" height="27.92" rx="0.81"/><rect class="cls-3" x="89.86" y="46.61" width="1.62" height="27.92" rx="0.81"/></svg>