<svg id="Layer_1" data-name="Layer 1" xmlns="http://www.w3.org/2000/svg" viewBox="0 0 177.1 169.27"><defs><style>.cls-1{fill:#f0f7ef;}.cls-2{fill:#231f20;}.cls-3{fill:#fff;}</style></defs><title>trash</title><path class="cls-1" d="M197,243.75H117.89A22.55,22.55,0,0,1,95.34,221.2V107.85H219.51V221.2A22.55,22.55,0,0,1,197,243.75Z" transform="translate(-68.88 -79.48)"/><path class="cls-2" d="M197,238.75H117.89c-.88,0-1.74-.07-2.61-.15-.69-.06,1,.17.31,0-.16,0-.33-.06-.5-.09-.5-.09-1-.2-1.49-.33-.81-.21-1.6-.48-2.39-.76s.94.46-.18-.07c-.45-.21-.9-.43-1.33-.66a22.8,22.8,0,0,1-2-1.2c-.19-.12-.36-.25-.54-.37-.57-.39,0,.18.23.18-.25,0-.8-.65-1-.84a23.53,23.53,0,0,1-1.74-1.72c-.26-.29-.5-.58-.75-.87-.61-.72.17.24.18.24s-.41-.57-.48-.67a23.35,23.35,0,0,1-1.28-2.09c-.19-.34-.36-.69-.53-1s-.17-.41-.27-.61c-.28-.57.42,1.17.06.12-.25-.74-.51-1.47-.71-2.22-.12-.44-.22-.88-.31-1.32l-.09-.5c-.14-.76,0-.37,0,.14,0-.93-.17-1.88-.17-2.81V107.85l-5,5H204.23c5,0,10.07.21,15.07,0h.21l-5-5V217.76c0,1.72.07,3.46-.06,5.18,0,.23,0,.46-.07.69-.09,1.15.17-.87,0-.14-.1.5-.18,1-.29,1.5s-.28,1.09-.44,1.62c-.07.2-.36,1.51-.56,1.57.1,0,.44-1,.11-.27-.14.29-.27.6-.42.89s-.41.78-.63,1.16-.56.94-.87,1.39c-.12.18-.26.35-.38.54-.64.93.72-.84,0,0a25.56,25.56,0,0,1-2,2.15c-.39.38-.81.72-1.22,1.08s.21,0,.23-.18c0,.16-.63.46-.8.57a20.9,20.9,0,0,1-2.54,1.5l-.75.36c-.86.42.07.16.13,0-.06.21-1.37.5-1.57.56-1,.3-2,.5-2.95.71-1.17.24,1.16-.09,0,0l-.69.06c-.58,0-1.17.06-1.75.07a5,5,0,0,0,0,10,27.81,27.81,0,0,0,24.32-14.61,30.19,30.19,0,0,0,3.23-14.24V126.27c0-6,.13-12.11,0-18.16v-.26a5.07,5.07,0,0,0-5-5H110.62c-5,0-10.05-.13-15.07,0h-.21a5.07,5.07,0,0,0-5,5v110.7c0,.88,0,1.76,0,2.65A27.6,27.6,0,0,0,99.85,242,28.24,28.24,0,0,0,118,248.75H197a5,5,0,1,0,0-10Z" transform="translate(-68.88 -79.48)"/><rect class="cls-2" x="62.72" y="64.76" width="7.33" height="63.12" rx="3.66"/><path class="cls-2" d="M135.26,204.86c-1.07,0-1.16-.92-1.16-1.85V149.33a5.74,5.74,0,0,1,.09-1.88,1.16,1.16,0,0,1,2.08-.14,1.43,1.43,0,0,1,.16.86c0,1,0,2,0,3v45.34c0,2.36.21,4.83,0,7.18a1.21,1.21,0,0,1-1.17,1.21c-3.2.14-3.22,5.14,0,5a6.32,6.32,0,0,0,6.17-6.45c0-1.07,0-2.13,0-3.2V152.48c0-3.55.59-7.77-3.06-9.9-4.15-2.43-9.1.74-9.27,5.34,0,.8,0,1.6,0,2.39v52a8.7,8.7,0,0,0,.63,4,6.23,6.23,0,0,0,5.53,3.48C138.48,209.86,138.49,204.86,135.26,204.86Z" transform="translate(-68.88 -79.48)"/><rect class="cls-2" x="108.2" y="64.76" width="7.33" height="63.12" rx="3.66"/><path class="cls-2" d="M180.74,204.86c-1.07,0-1.16-.92-1.16-1.85V149.33a6,6,0,0,1,.08-1.88,1.17,1.17,0,0,1,2.09-.14,1.6,1.6,0,0,1,.16.86c0,1,0,2,0,3v45.34c0,2.36.21,4.83,0,7.18a1.21,1.21,0,0,1-1.17,1.21c-3.2.14-3.22,5.14,0,5a6.32,6.32,0,0,0,6.17-6.45c0-1.07,0-2.13,0-3.2V152.48c0-3.55.59-7.77-3.06-9.9-4.15-2.43-9.1.74-9.27,5.34,0,.8,0,1.6,0,2.39v52a8.7,8.7,0,0,0,.63,4,6.22,6.22,0,0,0,5.53,3.48C184,209.86,184,204.86,180.74,204.86Z" transform="translate(-68.88 -79.48)"/><polygon class="cls-3" points="172.09 28.37 5 28.37 5 28.37 172.09 28.37 172.09 28.37"/><path class="cls-2" d="M241,102.85H94.47c-6.76,0-13.54-.14-20.31,0h-.28a5,5,0,0,0,0,10h146.5c6.76,0,13.54.14,20.31,0H241a5,5,0,0,0,0-10H94.47c-6.76,0-13.54-.14-20.31,0h-.28a5,5,0,0,0,0,10h146.5c6.76,0,13.54.14,20.31,0H241a5,5,0,0,0,0-10Z" transform="translate(-68.88 -79.48)"/><path class="cls-1" d="M165.74,84.48H149.11A19.51,19.51,0,0,0,129.6,104v3.86h55.65V104A19.51,19.51,0,0,0,165.74,84.48Z" transform="translate(-68.88 -79.48)"/><path class="cls-2" d="M165.74,79.48H149.88A26.13,26.13,0,0,0,137.5,82.4a24.17,24.17,0,0,0-10.68,11.47,25.46,25.46,0,0,0-2.22,9.76c0,1.41,0,2.82,0,4.22a5.07,5.07,0,0,0,5,5h55.65a5.07,5.07,0,0,0,5-5,55,55,0,0,0-.15-6.29,24.47,24.47,0,0,0-4-11.14,24.91,24.91,0,0,0-20.4-10.94,5,5,0,0,0,0,10c.81,0,1.62.12,2.42.15-1.47,0,0,0,.35.1s.66.15,1,.24,2.08.42,2.21.74c-.63-.28-.78-.34-.44-.18l.45.21c.4.19.78.39,1.16.61.62.35,1.17.81,1.79,1.15.3.22.18.13-.36-.29.17.14.34.27.5.42l.73.64a18.91,18.91,0,0,1,1.57,1.66c.14.16.28.33.41.5-.41-.54-.51-.66-.29-.36s.45.63.65.94A19.77,19.77,0,0,1,179,98l.21.44c.15.35.09.2-.18-.43.16.06.34.91.4,1.09a21.75,21.75,0,0,1,.58,2.1c.08.37.14,1.81.1.34,0,.34.08.69.1,1,.12,1.75.05,3.51.05,5.26l5-5H129.6l5,5v-3.7c0-.81.06-1.61.13-2.41s-.25,1.26,0,.14c.06-.27.11-.55.17-.83a17.81,17.81,0,0,1,.49-1.77c.1-.32.22-.63.33-.94.25-.72-.16.21-.13.27-.08-.15.65-1.31.73-1.47.27-.48.55-1,.85-1.4l.37-.54c.32-.43.25-.35-.19.23.13-.17.27-.34.41-.5a19.28,19.28,0,0,1,2.05-2.09c.13-.11.59-.62.75-.63-.21,0-.81.58-.23.2s1.08-.73,1.66-1.06,1-.51,1.46-.75c.86-.43-.29.11-.29.11s.82-.31.93-.35c.53-.18,1.06-.34,1.6-.48l.66-.15.67-.13c.44-.07.44-.07,0,0l-.32,0,.68-.07c.23,0,.46,0,.69,0s.71,0,1.07,0h16.61a5,5,0,0,0,0-10Z" transform="translate(-68.88 -79.48)"/></svg>